<svg style="height: 512px; width: 512px;" xmlns="http://www.w3.org/2000/svg" viewBox="0 0 512 512"><defs><filter id="shadow-1" height="300%" width="300%" x="-100%" y="-100%"><feFlood flood-color="rgba(0, 0, 0, 1)" result="flood"></feFlood><feComposite in="flood" in2="SourceGraphic" operator="out" result="composite"></feComposite><feGaussianBlur in="composite" stdDeviation="15" result="blur"></feGaussianBlur><feOffset dx="0" dy="0" result="offset"></feOffset><feComposite in2="SourceGraphic" in="offset" operator="atop"></feComposite></filter><linearGradient x1="0" x2="1" y1="1" y2="0" id="delapouite-character-gradient-1"><stop offset="0%" stop-color="#ea40ff" stop-opacity="1"></stop><stop offset="100%" stop-color="#ffffff" stop-opacity="1"></stop></linearGradient></defs><path d="M0 0h512v512H0z" fill="#360f3b" fill-opacity="1"></path><g class="" style="" transform="translate(0,0)"><path d="M255 45.4c-24.5 0-47 11.8-63.9 33.4-16.9 21.5-27.1 52.6-27.1 86.5 0 36 12.1 67.5 31 89.5l13.5 15-19.6 4.6c-52.3 11.9-77.4 36.9-91.75 75.2-13.7 35.7-15.6 84.8-16.1 143.3H431c-.2-58.7-.5-109.3-13-145.5-13.4-39.4-37.9-64.3-94-75.4l-19.9-3.7 12.9-15.7c17.7-21.9 28.8-52.6 28.8-87.5 0-33.9-10.3-64.9-27.2-86.3-16.8-21.7-39.3-33.6-63.6-33.4z" fill="url(#delapouite-character-gradient-1)" stroke="#c235d3" stroke-opacity="1" stroke-width="8" filter="url(#shadow-1)"></path></g></svg>